<svg version="1.1" id="Layer_1" xmlns="http://www.w3.org/2000/svg" xmlns:xlink="http://www.w3.org/1999/xlink" x="0px" y="0px"
	 width="100%" viewBox="0 0 654 425" enable-background="new 0 0 654 425" xml:space="preserve">
<path fill="#FFFFFF" opacity="1.000000" stroke="none" 
	d="
M349.000000,426.000000 
	C234.026520,426.000000 119.553024,425.983673 5.079635,426.083038 
	C1.830280,426.085876 0.892513,425.668701 0.895687,422.081329 
	C1.018669,283.113647 1.021151,144.145798 0.888279,5.178110 
	C0.884644,1.376759 1.907495,0.917923 5.320062,0.919345 
	C220.436859,1.008956 435.553711,1.008540 650.670471,0.922378 
	C654.051086,0.921024 655.117737,1.337924 655.113953,5.168658 
	C654.978210,143.969711 654.979553,282.770935 655.105103,421.571991 
	C655.108582,425.483093 654.048035,426.090546 650.429871,426.086670 
	C550.119995,425.978546 449.809998,426.000000 349.000000,426.000000 
z"/>
<path fill="#0369a1" opacity="1.000000" stroke="none" 
	d="
M260.218689,205.991028 
	C260.220337,183.667938 260.215698,161.843002 260.227325,140.018051 
	C260.230164,134.674332 260.890137,129.385284 262.262878,124.238808 
	C265.128235,113.496262 273.532593,106.265465 284.688416,106.144081 
	C313.506500,105.830513 342.331604,105.817268 371.150269,106.080910 
	C381.876617,106.179047 389.496460,112.565590 392.020782,123.562523 
	C394.277100,133.391724 394.061737,143.404709 389.958893,152.937408 
	C385.343323,163.661407 376.382965,167.533844 365.495605,167.704285 
	C361.491821,167.766968 359.558502,168.289261 359.521912,173.025269 
	C359.487915,177.422745 359.000641,181.963959 357.602020,186.295425 
	C353.767273,198.171371 344.485291,202.845612 333.211334,204.827576 
	C322.919434,206.636887 322.857361,206.564651 322.921783,216.857513 
	C322.962524,223.360413 322.934296,229.853424 320.997650,236.134109 
	C317.670197,246.925476 310.147095,252.698135 298.907776,252.979721 
	C294.085510,253.100525 289.178192,253.364395 284.440796,252.668961 
	C270.396912,250.607361 262.367889,241.594238 261.130035,226.916916 
	C260.557312,220.126465 259.843842,213.328064 260.218689,205.991028 
z"/>
<path fill="#0369a1" opacity="1.000000" stroke="none" 
	d="
M372.139648,312.026367 
	C370.279114,314.877502 364.302155,314.809265 362.193848,312.056488 
	C359.267731,308.235901 356.522461,304.276947 353.692169,300.382782 
	C353.009644,299.443726 352.296478,298.155090 351.035583,298.435822 
	C349.244476,298.834595 349.863739,300.567322 349.825958,301.792175 
	C349.744019,304.449493 349.642365,307.122864 349.840149,309.767853 
	C350.077057,312.936066 349.074097,314.167053 345.665253,314.118652 
	C342.398682,314.072205 341.844482,312.726288 341.880005,309.909393 
	C342.001556,300.269012 342.018585,290.624756 341.871704,280.985077 
	C341.826660,278.028564 342.626404,276.854828 345.774139,276.902863 
	C348.707916,276.947662 350.102264,277.683807 349.839844,280.841461 
	C349.634064,283.317566 349.783691,285.825409 349.820984,288.318481 
	C349.835419,289.282898 349.684570,290.415497 350.873474,290.857300 
	C352.027313,291.286072 352.688019,290.493073 353.330841,289.686371 
	C355.193298,287.349030 357.052979,285.008362 358.966736,282.713196 
	C363.931305,276.759064 363.942627,276.768494 372.361877,277.200073 
	C369.322906,282.716736 365.003113,286.989594 361.282898,291.650574 
	C359.323883,294.104980 359.278717,295.626862 361.234161,297.964874 
	C364.958771,302.418213 368.386536,307.119843 372.139648,312.026367 
z"/>
<path fill="#0369a1" opacity="1.000000" stroke="none" 
	d="
M271.932800,303.916077 
	C270.995819,305.325775 270.119781,306.357483 269.514252,307.529022 
	C266.646576,313.077240 262.422150,315.624054 255.721115,313.482056 
	C258.714447,307.920898 262.977142,303.129486 266.860229,298.156708 
	C268.999390,295.417297 268.667633,293.719360 266.737701,291.385864 
	C263.084869,286.969147 259.589478,282.422211 255.936279,277.812805 
	C263.904602,274.588562 267.516022,279.575134 270.750641,284.631348 
	C273.257172,288.549500 274.905396,288.375305 277.242859,284.563660 
	C280.450317,279.333374 284.196106,274.726990 291.991119,277.766876 
	C288.237701,282.562347 284.667145,287.273743 280.922211,291.842224 
	C279.194794,293.949493 278.925568,295.440979 280.879852,297.792053 
	C284.876526,302.600220 288.396088,307.804932 292.215240,312.986237 
	C285.045135,315.135345 283.418427,314.616150 279.781250,309.330444 
	C278.462830,307.414398 277.120880,305.513550 275.844727,303.569641 
	C274.552399,301.601196 273.343292,301.639832 271.932800,303.916077 
z"/>
<path fill="#0369a1" opacity="1.000000" stroke="none" 
	d="
M326.015015,279.970276 
	C330.117065,285.685730 329.709961,287.047760 324.248871,287.706909 
	C322.591827,287.906921 321.777008,287.281281 321.074982,286.001556 
	C319.810089,283.695862 317.713074,282.938080 315.218079,282.935791 
	C312.899567,282.933685 310.791901,283.423859 310.095367,285.962280 
	C309.314484,288.808197 311.620758,289.812897 313.530762,290.677155 
	C315.479340,291.558868 317.661194,291.909241 319.703949,292.601288 
	C327.122070,295.114288 330.457611,299.022156 329.792145,304.331818 
	C329.071014,310.085815 324.777130,313.693115 317.475220,314.679260 
	C311.159058,315.532318 304.485748,312.580048 301.974274,307.747955 
	C301.234589,306.324829 299.916534,304.029694 302.039368,303.556152 
	C304.132233,303.089355 307.030457,299.904388 308.953796,303.750946 
	C310.725098,307.293365 313.523407,308.360596 317.149078,308.009979 
	C319.144348,307.817078 320.605225,306.806335 321.089874,304.766205 
	C321.574707,302.725189 320.868134,301.068237 318.962921,300.217224 
	C316.396729,299.071014 313.758636,298.073059 311.111023,297.124146 
	C303.466278,294.384308 300.749176,290.603394 302.116425,284.479401 
	C303.299225,279.181519 309.812836,275.415955 316.464203,276.345367 
	C319.765076,276.806610 323.003937,277.619965 326.015015,279.970276 
z"/>
<path fill="#0369a1" opacity="1.000000" stroke="none" 
	d="
M488.060669,294.830170 
	C492.089661,297.768219 493.870728,301.439941 492.629059,305.913696 
	C491.311005,310.662994 487.813385,313.173309 482.937439,314.127197 
	C475.953369,315.493530 468.501373,313.307159 465.540619,308.477020 
	C464.610779,306.960052 462.553925,304.536469 465.253174,303.525391 
	C467.257263,302.774750 470.479462,299.934143 472.452484,304.184448 
	C473.918823,307.343231 476.573456,308.290863 479.853821,308.056885 
	C482.239868,307.886719 484.195221,306.917969 484.656250,304.490021 
	C485.080109,302.257812 483.649506,300.666718 481.669525,299.833496 
	C479.226471,298.805420 476.695343,297.984283 474.193115,297.099670 
	C466.882507,294.515228 464.567780,291.704620 465.042358,285.956024 
	C465.474335,280.723541 469.151062,277.247864 476.093536,276.475342 
	C481.533844,275.869965 486.757141,277.040924 490.492523,281.547211 
	C491.561676,282.836975 493.299194,285.149658 491.274994,286.242828 
	C489.414948,287.247375 486.490051,289.645203 484.352020,286.217224 
	C482.973633,284.007233 481.108063,282.909210 478.595215,282.963776 
	C476.196655,283.015869 473.634888,283.380615 473.161194,286.235870 
	C472.727722,288.848511 474.958649,290.170288 476.978912,290.807068 
	C480.619995,291.954651 484.332458,292.855286 488.060669,294.830170 
z"/>
<path fill="#0369a1" opacity="1.000000" stroke="none" 
	d="
M230.143463,314.006775 
	C225.222214,314.805939 223.976776,312.934265 224.144180,308.545044 
	C224.486221,299.577118 224.429306,290.581543 224.161285,281.608612 
	C224.046509,277.765961 225.351715,276.680786 229.018768,276.923248 
	C233.489746,277.218811 237.997620,277.084930 242.484573,276.959656 
	C244.928513,276.891449 246.086960,277.516479 246.105743,280.268463 
	C246.125244,283.127441 245.114197,284.198822 242.324310,283.947113 
	C240.674652,283.798279 238.985687,284.063354 237.340469,283.891907 
	C234.016312,283.545563 232.624313,284.596802 232.622986,288.253204 
	C232.621582,292.097870 234.696930,292.139465 237.397842,292.006409 
	C238.890930,291.932861 240.397049,292.085846 241.886261,291.980560 
	C244.498123,291.795898 244.864914,293.315338 244.848633,295.423584 
	C244.832809,297.475769 244.603378,299.103516 241.942825,298.931580 
	C240.452393,298.835266 238.939636,299.034790 237.455719,298.897736 
	C234.289139,298.605408 232.571381,299.319092 232.621414,303.138916 
	C232.668457,306.731293 234.298569,307.331421 237.229874,307.101501 
	C238.882797,306.971802 240.563232,307.188995 242.215408,307.054718 
	C244.878052,306.838379 246.091995,307.647003 246.117249,310.620514 
	C246.144058,313.776154 244.595734,314.116699 242.095901,314.037720 
	C238.274490,313.916992 234.446442,314.006531 230.143463,314.006775 
z"/>
<path fill="#0369a1" opacity="1.000000" stroke="none" 
	d="
M174.987976,291.991760 
	C177.467941,292.568115 180.793457,290.347992 181.005753,294.774353 
	C181.139282,297.558716 180.591248,298.958099 177.283936,299.007538 
	C168.927032,299.132416 169.033798,299.307556 168.842865,307.892303 
	C168.797684,309.924072 170.333267,312.772705 167.178345,313.910736 
	C163.186081,315.350861 161.011719,313.715973 160.999847,309.409607 
	C160.974182,300.109680 161.117737,290.806976 160.925079,281.510925 
	C160.855911,278.173401 161.632278,276.694122 165.290787,276.919983 
	C170.088669,277.216125 174.922379,277.112183 179.733063,276.951630 
	C182.545746,276.857727 183.014709,278.238312 182.991837,280.606323 
	C182.970444,282.821930 182.407166,284.100433 179.909348,283.940460 
	C178.090149,283.823944 176.256424,283.886993 174.430664,283.931274 
	C171.765045,283.995880 168.880875,282.993866 168.764313,287.766937 
	C168.642212,292.767303 171.574921,292.020630 174.987976,291.991760 
z"/>
<path fill="#0369a1" opacity="1.000000" stroke="none" 
	d="
M407.421387,313.832153 
	C405.089417,310.089691 406.284790,306.216736 406.168365,302.475372 
	C405.950806,295.484253 406.192444,288.479980 406.064484,281.484436 
	C406.011780,278.602783 406.297791,276.845337 409.986511,276.865295 
	C413.452972,276.884094 414.148895,278.208099 414.069824,281.294983 
	C413.890717,288.288300 414.195038,295.295929 413.939240,302.284454 
	C413.807343,305.888672 414.695618,307.680939 418.596100,307.100098 
	C419.899872,306.905914 421.266724,307.173950 422.588318,307.052399 
	C425.352051,306.798096 425.890900,308.242523 425.939606,310.663025 
	C425.993835,313.359344 424.865875,314.122437 422.358765,314.047974 
	C417.531067,313.904602 412.697021,313.973480 407.421387,313.832153 
z"/>
<path fill="#0369a1" opacity="1.000000" stroke="none" 
	d="
M454.521484,307.225891 
	C457.068848,313.280945 456.618408,313.983093 450.632477,314.001129 
	C446.971191,314.012146 443.305237,313.889099 439.650085,314.038727 
	C437.042419,314.145477 436.151306,313.132416 436.176239,310.556000 
	C436.272797,300.571533 436.298096,290.584503 436.164185,280.600922 
	C436.125092,277.688202 437.256958,276.929565 439.987030,276.923248 
	C442.814789,276.916687 444.244324,277.475800 444.144409,280.750885 
	C443.931335,287.734161 444.379852,294.745941 443.973938,301.712036 
	C443.708008,306.275757 445.310333,307.734924 449.599976,307.119141 
	C451.065033,306.908813 452.589844,307.114441 454.521484,307.225891 
z"/>
<path fill="#0369a1" opacity="1.000000" stroke="none" 
	d="
M213.876282,309.206635 
	C214.297318,312.671173 213.467468,314.420868 209.916260,314.050568 
	C204.844070,313.521606 198.397598,316.165070 195.021896,312.897430 
	C192.062256,310.032562 194.283096,303.704437 194.169189,298.910675 
	C194.022736,292.748016 194.264816,286.575378 194.083420,280.414581 
	C193.991150,277.281189 195.571823,276.925842 198.091690,276.934235 
	C200.575882,276.942505 202.179321,277.201324 202.101578,280.380035 
	C201.918259,287.874878 202.184402,295.381073 201.984467,302.875061 
	C201.897369,306.140900 202.946747,307.137085 206.228241,307.204468 
	C208.740601,307.256073 211.939240,305.379517 213.876282,309.206635 
z"/>
<path fill="#0369a1" opacity="1.000000" stroke="none" 
	d="
M391.922302,309.769379 
	C392.478973,314.004364 390.118469,313.979034 387.369812,314.078583 
	C384.212982,314.192963 383.941956,312.561340 383.962555,310.077759 
	C384.043762,300.297302 384.114563,290.513580 383.929443,280.735931 
	C383.868011,277.489685 385.228455,276.960266 388.050537,276.904877 
	C391.149719,276.844025 392.027283,277.962952 391.978790,280.951630 
	C391.825439,290.398682 391.922577,299.849823 391.922302,309.769379 
z"/>
<path fill="#0369a1" opacity="1.000000" stroke="none" 
	d="
M394.717346,334.240723 
	C395.675751,335.533508 396.418365,336.533722 398.006409,338.672729 
	C398.006409,335.055939 397.996429,332.808624 398.010742,330.561462 
	C398.017609,329.488556 398.274200,328.518677 399.596100,328.503662 
	C400.779053,328.490234 401.539337,329.274323 401.561523,330.346283 
	C401.644226,334.336700 402.159760,338.443237 401.398071,342.285217 
	C400.819336,345.204498 398.147705,344.614319 396.551758,342.625793 
	C394.809021,340.454346 393.441986,337.981384 390.895844,335.730011 
	C390.895844,337.744171 390.914795,339.758575 390.888123,341.772400 
	C390.874054,342.830627 390.615906,343.796112 389.315674,343.894745 
	C387.800507,344.009674 387.242279,343.103821 387.231598,341.749634 
	C387.206726,338.587372 387.185638,335.424683 387.209961,332.262573 
	C387.221191,330.803528 386.898193,329.066498 388.856049,328.545288 
	C390.876160,328.007477 391.881165,329.443604 392.765625,330.916595 
	C393.364929,331.914703 393.924347,332.936768 394.717346,334.240723 
z"/>
<path fill="#0369a1" opacity="1.000000" stroke="none" 
	d="
M333.335083,330.274170 
	C336.826294,327.674835 340.102844,327.554657 343.278595,329.978424 
	C345.850464,331.941254 346.994202,334.638092 346.361847,337.863708 
	C345.742554,341.022369 344.168976,343.567322 340.670868,343.933868 
	C337.347107,344.282135 333.826721,344.538788 331.804688,340.981018 
	C329.684326,337.250275 329.924988,333.687042 333.335083,330.274170 
z"/>
<path fill="#0369a1" opacity="1.000000" stroke="none" 
	d="
M449.125183,328.349243 
	C457.757782,329.025635 460.890106,332.050323 459.785950,338.223633 
	C458.925842,343.032623 452.121643,346.250885 447.967743,343.805542 
	C447.693665,343.644165 447.419617,343.432068 447.234314,343.178680 
	C445.764740,341.168762 446.846222,330.507629 449.125183,328.349243 
z"/>
<path fill="#0369a1" opacity="1.000000" stroke="none" 
	d="
M354.286499,337.501312 
	C354.298706,334.908630 354.260315,332.742767 354.362915,330.583588 
	C354.426117,329.253113 355.198944,328.345703 356.611908,328.496552 
	C357.900696,328.634186 357.978394,329.745117 357.985352,330.774994 
	C357.999939,332.938812 357.998199,335.102692 358.010406,337.266510 
	C358.020264,339.017029 358.197540,340.841888 360.422333,340.938141 
	C363.021637,341.050629 363.135986,339.009369 363.176819,337.108765 
	C363.223267,334.946045 363.181458,332.780640 363.265533,330.619812 
	C363.318390,329.262360 364.106293,328.398163 365.497681,328.496216 
	C366.794861,328.587677 366.917480,329.676758 366.924103,330.714752 
	C366.936829,332.712097 366.961731,334.709930 366.932037,336.706848 
	C366.880829,340.154297 366.766449,343.516449 362.117828,344.028259 
	C357.455078,344.541595 354.758270,342.715454 354.286499,337.501312 
z"/>
<path fill="#0369a1" opacity="1.000000" stroke="none" 
	d="
M200.514740,334.755402 
	C203.523727,335.267883 205.729752,336.214172 206.019073,339.303192 
	C206.180664,341.028442 206.004227,342.968567 204.150574,343.500031 
	C201.307114,344.315277 198.273926,344.817566 195.618103,342.787079 
	C194.875931,342.219666 193.932693,341.378418 194.672638,340.299561 
	C195.393127,339.249084 196.557663,338.783386 197.631836,339.822571 
	C198.949036,341.096863 200.773727,342.182526 201.622391,340.239258 
	C202.519257,338.185608 199.861832,337.760254 198.494461,337.277466 
	C196.224640,336.475922 194.505798,335.319611 194.588516,332.806793 
	C194.670242,330.324188 196.478439,329.000397 198.720139,328.433533 
	C201.206985,327.804718 203.258148,328.830688 204.989639,330.561340 
	C205.602707,331.174103 206.050797,332.018188 205.209976,332.685760 
	C204.174301,333.507996 203.130783,333.228729 202.052750,332.439026 
	C200.913696,331.604614 199.342834,331.251312 198.536331,332.618408 
	C197.886948,333.719147 199.355270,334.138245 200.514740,334.755402 
z"/>
<path fill="#0369a1" opacity="1.000000" stroke="none" 
	d="
M286.827209,341.106720 
	C289.145386,337.760132 285.784882,337.871307 284.480988,337.323730 
	C282.270081,336.395325 280.508423,335.317078 280.571503,332.802063 
	C280.627502,330.568359 282.201477,329.272705 284.258820,328.566956 
	C286.776459,327.703339 288.810486,328.696381 290.673279,330.247681 
	C291.320221,330.786469 291.938660,331.599976 291.408203,332.396484 
	C290.930481,333.113800 289.962158,333.081024 289.121124,332.830902 
	C288.020325,332.503540 286.940582,332.043945 285.817017,331.881317 
	C285.272552,331.802582 284.372772,332.030670 284.448456,332.934326 
	C284.482422,333.340027 284.842865,333.825836 285.196594,334.072144 
	C285.730011,334.443542 286.363342,334.736816 286.996094,334.889526 
	C290.791138,335.805359 293.123596,337.748901 291.639557,341.982574 
	C290.922150,344.029358 285.102570,344.962769 282.560425,343.509033 
	C281.453857,342.876190 279.889160,341.954742 280.609955,340.490204 
	C281.435455,338.812927 282.856842,338.893951 284.219025,340.363800 
	C284.699799,340.882599 285.689453,340.929810 286.827209,341.106720 
z"/>
<path fill="#0369a1" opacity="1.000000" stroke="none" 
	d="
M215.947800,343.739288 
	C214.297211,339.708405 215.237091,335.697388 215.010208,331.741058 
	C214.940521,330.525848 214.501389,328.679626 216.428284,328.580719 
	C218.436127,328.477661 217.917938,330.331848 218.067444,331.567139 
	C218.146393,332.219421 218.238678,332.870117 218.353226,333.735168 
	C222.326660,333.672729 222.300568,326.963654 227.057602,328.619598 
	C227.911453,329.817261 226.818130,330.468018 226.202240,331.083099 
	C223.163513,334.117920 221.452637,337.109344 225.550797,340.686676 
	C226.229813,341.279419 227.598434,342.547668 226.370590,343.584106 
	C225.248932,344.530945 223.885178,344.000824 222.942947,342.735046 
	C221.777283,341.169037 220.541016,339.655579 219.376160,338.171570 
	C216.622147,339.474548 219.807892,343.284454 215.947800,343.739288 
z"/>
<path fill="#0369a1" opacity="1.000000" stroke="none" 
	d="
M414.676514,332.377472 
	C413.762512,335.094299 415.504486,334.879578 416.994446,334.986206 
	C417.930481,335.053162 419.187012,334.801849 419.260284,336.216797 
	C419.323425,337.437042 418.359955,337.786102 417.277405,337.923737 
	C416.078033,338.076202 414.232361,337.510468 414.273315,339.526428 
	C414.313477,341.502411 416.126709,340.911255 417.336700,341.059784 
	C418.463409,341.198029 419.940582,341.038239 419.710571,342.762451 
	C419.492920,344.394165 417.973663,343.886627 416.904266,344.013245 
	C412.916290,344.485413 409.989166,343.855865 410.920258,338.679443 
	C411.208588,337.076477 411.197205,335.337952 410.921448,333.730377 
	C410.058044,328.697388 412.710205,327.741028 416.865875,328.285248 
	C418.124451,328.450073 419.779602,328.063171 419.807312,330.034241 
	C419.834961,332.001129 418.207703,331.730591 416.925140,331.847443 
	C416.270020,331.907135 415.619659,332.019531 414.676514,332.377472 
z"/>
<path fill="#0369a1" opacity="1.000000" stroke="none" 
	d="
M431.267822,328.326843 
	C432.697693,328.297424 433.696381,328.244720 434.688263,328.304565 
	C435.941315,328.380157 437.612122,327.970306 437.776367,329.897675 
	C437.944183,331.866516 436.349060,331.730469 435.024078,331.851135 
	C433.939667,331.949890 432.440338,331.556335 432.263977,333.206024 
	C432.031799,335.378143 433.850342,334.810852 435.034973,334.997284 
	C435.865753,335.128021 436.756714,335.180084 436.842926,336.262299 
	C436.953003,337.643738 435.937897,337.798248 434.900818,337.925354 
	C433.821075,338.057678 432.282898,337.683777 432.240265,339.385193 
	C432.187836,341.476715 433.960175,340.916473 435.166687,341.050964 
	C436.301239,341.177460 437.789978,340.986664 437.703278,342.639496 
	C437.617371,344.277893 436.085999,343.917145 434.988831,344.014587 
	C429.194611,344.529175 428.662109,344.275238 429.049225,338.273132 
	C429.262329,334.969269 426.968689,331.038727 431.267822,328.326843 
z"/>
<path fill="#0369a1" opacity="1.000000" stroke="none" 
	d="
M322.584717,330.921936 
	C320.430054,334.463318 318.215302,337.611664 318.885681,341.781403 
	C319.098358,343.104126 318.391388,344.056061 316.853088,343.897003 
	C315.244690,343.730652 315.110443,342.446289 315.239014,341.297394 
	C315.656067,337.570160 314.244324,334.489685 312.169586,331.560455 
	C311.565338,330.707367 310.284607,329.623047 311.814026,328.643890 
	C312.983124,327.895416 314.020081,328.712280 314.755768,329.733734 
	C315.427612,330.666565 316.069702,331.620850 316.975708,332.927368 
	C318.280365,331.494049 319.258087,329.950592 320.647827,329.027313 
	C321.993469,328.133331 324.370575,327.091217 322.584717,330.921936 
z"/>
<path fill="#0369a1" opacity="1.000000" stroke="none" 
	d="
M268.736084,330.721771 
	C268.778931,333.458313 268.763733,335.775543 268.804749,338.091827 
	C268.824860,339.227173 268.705414,340.466736 270.206635,340.906403 
	C271.350159,341.241302 273.260529,340.901062 272.745636,342.988861 
	C272.377197,344.482727 270.811859,344.074280 269.782898,343.963074 
	C268.166870,343.788452 265.528503,345.062073 265.258728,342.409149 
	C264.842407,338.315765 264.578857,334.057587 265.279816,330.049286 
	C265.795959,327.097717 267.647736,328.349518 268.736084,330.721771 
z"/>
<path fill="#0369a1" opacity="1.000000" stroke="none" 
	d="
M248.995026,339.817322 
	C249.000412,336.701233 248.985870,334.053345 249.022690,331.406158 
	C249.036209,330.433319 249.003433,329.262238 250.343460,329.152802 
	C252.063873,329.012329 252.022415,330.371887 252.053741,331.524811 
	C252.098679,333.178497 252.083832,334.834045 252.076614,336.488770 
	C252.066574,338.790924 251.576004,341.376129 255.292648,341.159210 
	C256.194885,341.106506 256.875336,341.681549 256.807343,342.687683 
	C256.736053,343.742737 255.872818,344.051086 255.041946,343.951843 
	C252.497940,343.647919 248.484558,345.648804 248.995026,339.817322 
z"/>
<path fill="#0369a1" opacity="1.000000" stroke="none" 
	d="
M236.026154,336.028137 
	C236.730682,333.452972 234.451324,329.495972 237.747650,329.467499 
	C240.422913,329.444366 238.775909,333.325317 239.057755,335.435913 
	C239.341537,337.561127 239.127426,339.756927 239.079056,341.920654 
	C239.054962,342.999115 238.713135,343.930908 237.360458,343.792908 
	C236.311157,343.685883 236.088211,342.849609 236.067017,341.992126 
	C236.021774,340.161469 236.036163,338.329285 236.026154,336.028137 
z"/>
<path fill="#0369a1" opacity="1.000000" stroke="none" 
	d="
M355.308960,144.868347 
	C349.235870,130.824127 329.494446,127.932022 318.324432,132.416046 
	C311.625946,135.105042 307.112488,143.459335 308.286621,150.292511 
	C309.902802,159.697998 316.833923,166.233200 326.165741,166.975922 
	C331.128845,167.370926 336.110687,167.749817 341.082733,167.733109 
	C344.197632,167.722641 344.980743,168.872406 345.061707,171.825195 
	C345.423523,185.018311 340.574615,190.374054 327.205658,190.984711 
	C322.883362,191.182159 318.527313,191.430496 314.227173,191.110916 
	C309.550446,190.763321 307.737701,192.134903 307.943115,197.147385 
	C308.324615,206.455627 308.109009,215.792709 307.991882,225.115906 
	C307.846619,236.679184 303.482513,239.669388 292.175903,238.655350 
	C277.822296,237.368011 275.918365,234.832840 275.120636,219.967606 
	C274.986908,217.476028 275.039032,214.973434 275.038391,212.475922 
	C275.031891,187.998932 275.059937,163.521851 274.998810,139.045013 
	C274.990448,135.690903 275.271698,132.399628 276.034149,129.158875 
	C277.161316,124.367950 279.691528,121.310799 285.094025,120.741150 
	C289.578674,120.268288 294.035797,120.091331 298.520660,120.089981 
	C320.833008,120.083260 343.145416,120.062515 365.457703,120.098190 
	C375.758148,120.114662 378.333435,122.704330 378.916046,132.993820 
	C379.126434,136.709625 378.496796,140.334274 377.738678,143.869186 
	C376.133820,151.352432 365.488647,156.331024 358.900848,152.695786 
	C356.228302,151.221039 356.844391,147.622711 355.308960,144.868347 
z"/>
<path fill="#0369a1" opacity="1.000000" stroke="none" 
	d="
M341.930206,151.490265 
	C336.541901,153.863647 331.099304,153.532883 325.737579,151.846985 
	C324.180664,151.357452 322.799316,150.099670 323.092590,148.097076 
	C323.342804,146.388733 324.726501,145.662292 326.196075,145.235031 
	C331.400146,143.722015 338.656281,146.448074 341.930206,151.490265 
z"/>
<path fill="#0369a1" opacity="1.000000" stroke="none" 
	d="
M339.708801,341.007324 
	C336.075562,341.340759 334.225220,339.914917 334.030548,336.626892 
	C333.898132,334.390625 334.865143,332.676727 337.066620,332.073578 
	C339.348358,331.448517 341.558990,331.935669 342.527893,334.290680 
	C343.666199,337.057404 343.089386,339.513397 339.708801,341.007324 
z"/>
<path fill="#0369a1" opacity="1.000000" stroke="none" 
	d="
M450.006744,335.159485 
	C449.826813,332.205048 451.195740,331.496826 453.369202,331.980133 
	C456.519104,332.680603 456.061218,335.249420 456.017151,337.505005 
	C455.970093,339.912323 454.612030,341.025146 452.240082,341.035217 
	C449.653046,341.046204 450.070374,339.156982 450.009216,337.569733 
	C449.983978,336.915100 450.004272,336.258728 450.006744,335.159485 
z"/>
</svg>